<svg xmlns="http://www.w3.org/2000/svg" viewBox="0 0 500 500" width="500" height="500" role="img" aria-label="OBRA #1 — Constructiva, Hueso y Tinta">
  <defs>
    <clipPath id="frame-clip-1"><rect x="46" y="46" width="408" height="408" rx="2"/></clipPath>
    <filter id="grain-1"><feTurbulence type="fractalNoise" baseFrequency="0.85" numOctaves="2" seed="1" result="noise"/><feColorMatrix in="noise" type="matrix" values="0 0 0 0 0  0 0 0 0 0  0 0 0 0 0  0 0 0 0.5 0"/></filter>
  </defs>
  <rect x="0" y="0" width="500" height="500" fill="#000d06"/>
  <rect x="28" y="28" width="444" height="444" rx="6" fill="#011c11"/>
  <g clip-path="url(#frame-clip-1)">
    <rect x="274.2" y="93.5" width="160.2" height="25.2" fill="#ded6c9" opacity="0.98" transform="rotate(-30 354.2 106.1)"/><rect x="121.2" y="221.9" width="202.5" height="15.8" fill="#e9faf2" opacity="0.96" transform="rotate(0 222.5 229.8)"/><rect x="115.8" y="406.9" width="177.4" height="26.5" fill="#97b2a5" opacity="0.71" transform="rotate(45 204.5 420.1)"/><rect x="34.8" y="249.1" width="317.6" height="13.6" fill="#ded6c9" opacity="0.92" transform="rotate(45 193.6 255.9)"/><rect x="143.4" y="119.3" width="199.3" height="15.4" fill="#e9faf2" opacity="0.93" transform="rotate(-30 243.1 127.0)"/><rect x="157.3" y="63.4" width="251.0" height="24.2" fill="#97b2a5" opacity="0.84" transform="rotate(0 282.8 75.5)"/><rect x="26.3" y="147.7" width="242.8" height="18.1" fill="#ded6c9" opacity="0.84" transform="rotate(-30 147.7 156.7)"/><rect x="38.6" y="299.7" width="299.4" height="19.0" fill="#e9faf2" opacity="0.88" transform="rotate(30 188.3 309.2)"/>
    <rect x="46" y="46" width="408" height="408" fill="#e9faf2" filter="url(#grain-1)" opacity="0.15"/>
  </g>
  <rect x="46" y="46" width="408" height="408" fill="none" stroke="#203c30" stroke-width="2"/>
  <g transform="translate(392,392) scale(0.7600)"><rect x="8" y="8" width="84" height="84" rx="14" fill="#f5642b"/><path d="M 62.55 57.22 A 19 19 0 1 1 66.93 46.66 C 76 52 82 62 78 72 C 75.5 78 68 80 62 76" fill="none" stroke="#000d06" stroke-width="7" stroke-linecap="round" stroke-linejoin="round"/></g>
</svg>
