<svg xmlns="http://www.w3.org/2000/svg" viewBox="0 0 500 500" width="500" height="500" role="img" aria-label="OBRA #2 — Retícula, Vermellón">
  <defs>
    <clipPath id="frame-clip-2"><rect x="46" y="46" width="408" height="408" rx="2"/></clipPath>
    <pattern id="hatch-2" width="6" height="6" patternTransform="rotate(45)" patternUnits="userSpaceOnUse"><line x1="0" y1="0" x2="0" y2="6" stroke="#e9faf2" stroke-width="0.6"/></pattern>
  </defs>
  <rect x="0" y="0" width="500" height="500" fill="#000d06"/>
  <rect x="28" y="28" width="444" height="444" rx="6" fill="#011c11"/>
  <g clip-path="url(#frame-clip-2)">
    <rect x="183.8" y="251.8" width="64.5" height="64.5" fill="#e9faf2" opacity="0.73"/><rect x="253.6" y="185.6" width="60.8" height="60.8" fill="#f5642b" opacity="0.81"/><rect x="251.9" y="319.9" width="64.1" height="64.1" fill="#f5642b" opacity="0.80"/><rect x="183.8" y="319.8" width="64.4" height="64.4" fill="#e9faf2" opacity="0.84"/><rect x="115.2" y="115.2" width="65.6" height="65.6" fill="#c06240" opacity="0.87"/><rect x="49.7" y="389.7" width="60.6" height="60.6" fill="#f5642b" opacity="0.83"/><rect x="252.2" y="252.2" width="63.6" height="63.6" fill="#f5642b" opacity="0.89"/><rect x="116.9" y="48.9" width="62.2" height="62.2" fill="#c06240" opacity="0.93"/><rect x="321.9" y="389.9" width="60.1" height="60.1" fill="#c06240" opacity="0.82"/><rect x="183.6" y="115.6" width="64.8" height="64.8" fill="#e9faf2" opacity="1.00"/>
    <rect x="46" y="46" width="408" height="408" fill="url(#hatch-2)" opacity="0.22"/>
  </g>
  <rect x="46" y="46" width="408" height="408" fill="none" stroke="#203c30" stroke-width="2"/>
  <g transform="translate(392,392) scale(0.7600)"><rect x="8" y="8" width="84" height="84" rx="14" fill="#f5642b"/><path d="M 62.55 57.22 A 19 19 0 1 1 66.93 46.66 C 76 52 82 62 78 72 C 75.5 78 68 80 62 76" fill="none" stroke="#000d06" stroke-width="7" stroke-linecap="round" stroke-linejoin="round"/></g>
</svg>
