<svg xmlns="http://www.w3.org/2000/svg" viewBox="0 0 500 500" width="500" height="500" role="img" aria-label="OBRA #35 — Guilloché, Sala Verde">
  <defs>
    <clipPath id="frame-clip-35"><rect x="46" y="46" width="408" height="408" rx="2"/></clipPath>
    <filter id="grain-35"><feTurbulence type="fractalNoise" baseFrequency="0.85" numOctaves="2" seed="35" result="noise"/><feColorMatrix in="noise" type="matrix" values="0 0 0 0 0  0 0 0 0 0  0 0 0 0 0  0 0 0 0.5 0"/></filter>
  </defs>
  <rect x="0" y="0" width="500" height="500" fill="#000d06"/>
  <rect x="28" y="28" width="444" height="444" rx="6" fill="#011c11"/>
  <g clip-path="url(#frame-clip-35)">
    <ellipse cx="244.7" cy="252.5" rx="30.4" ry="23.6" fill="none" stroke="#57bc80" stroke-width="1" opacity="0.27" transform="rotate(16.9 244.7 252.5)"/><ellipse cx="260.9" cy="263.4" rx="32.7" ry="26.5" fill="none" stroke="#438c60" stroke-width="1" opacity="0.37" transform="rotate(107.2 260.9 263.4)"/><ellipse cx="250.3" cy="251.1" rx="39.3" ry="28.2" fill="none" stroke="#e9faf2" stroke-width="1" opacity="0.20" transform="rotate(79.2 250.3 251.1)"/><ellipse cx="245.5" cy="254.6" rx="51.2" ry="39.8" fill="none" stroke="#57bc80" stroke-width="1" opacity="0.25" transform="rotate(17.8 245.5 254.6)"/><ellipse cx="250.8" cy="259.3" rx="57.0" ry="48.1" fill="none" stroke="#438c60" stroke-width="1" opacity="0.24" transform="rotate(119.2 250.8 259.3)"/><ellipse cx="262.4" cy="237.2" rx="57.9" ry="37.0" fill="none" stroke="#e9faf2" stroke-width="1" opacity="0.38" transform="rotate(56.9 262.4 237.2)"/><ellipse cx="245.4" cy="261.9" rx="65.7" ry="40.0" fill="none" stroke="#57bc80" stroke-width="1" opacity="0.22" transform="rotate(148.1 245.4 261.9)"/><ellipse cx="236.7" cy="259.6" rx="72.1" ry="46.2" fill="none" stroke="#438c60" stroke-width="1" opacity="0.37" transform="rotate(5.3 236.7 259.6)"/><ellipse cx="248.8" cy="257.4" rx="80.4" ry="53.1" fill="none" stroke="#e9faf2" stroke-width="1" opacity="0.25" transform="rotate(106.8 248.8 257.4)"/><ellipse cx="244.6" cy="260.0" rx="83.7" ry="64.1" fill="none" stroke="#57bc80" stroke-width="1" opacity="0.26" transform="rotate(138.2 244.6 260.0)"/><ellipse cx="246.3" cy="249.2" rx="94.6" ry="59.2" fill="none" stroke="#438c60" stroke-width="1" opacity="0.35" transform="rotate(139.9 246.3 249.2)"/><ellipse cx="241.2" cy="239.0" rx="99.1" ry="67.6" fill="none" stroke="#e9faf2" stroke-width="1" opacity="0.37" transform="rotate(63.6 241.2 239.0)"/><ellipse cx="259.2" cy="256.3" rx="108.0" ry="59.5" fill="none" stroke="#57bc80" stroke-width="1" opacity="0.23" transform="rotate(29.7 259.2 256.3)"/><ellipse cx="258.0" cy="243.6" rx="113.8" ry="77.2" fill="none" stroke="#438c60" stroke-width="1" opacity="0.38" transform="rotate(109.0 258.0 243.6)"/><ellipse cx="245.7" cy="237.7" rx="119.9" ry="87.8" fill="none" stroke="#e9faf2" stroke-width="1" opacity="0.40" transform="rotate(65.8 245.7 237.7)"/><ellipse cx="249.7" cy="238.6" rx="120.9" ry="89.0" fill="none" stroke="#57bc80" stroke-width="1" opacity="0.18" transform="rotate(169.4 249.7 238.6)"/><ellipse cx="238.1" cy="263.5" rx="125.4" ry="71.4" fill="none" stroke="#438c60" stroke-width="1" opacity="0.39" transform="rotate(83.4 238.1 263.5)"/><ellipse cx="259.7" cy="237.2" rx="133.7" ry="96.8" fill="none" stroke="#e9faf2" stroke-width="1" opacity="0.34" transform="rotate(108.8 259.7 237.2)"/><ellipse cx="247.0" cy="249.3" rx="143.0" ry="105.0" fill="none" stroke="#57bc80" stroke-width="1" opacity="0.32" transform="rotate(25.0 247.0 249.3)"/><ellipse cx="240.6" cy="242.4" rx="146.7" ry="123.0" fill="none" stroke="#438c60" stroke-width="1" opacity="0.40" transform="rotate(128.5 240.6 242.4)"/><ellipse cx="247.8" cy="236.8" rx="151.0" ry="122.5" fill="none" stroke="#e9faf2" stroke-width="1" opacity="0.20" transform="rotate(87.6 247.8 236.8)"/><ellipse cx="240.0" cy="260.0" rx="163.3" ry="91.1" fill="none" stroke="#57bc80" stroke-width="1" opacity="0.22" transform="rotate(9.3 240.0 260.0)"/><ellipse cx="240.5" cy="242.1" rx="169.5" ry="137.3" fill="none" stroke="#438c60" stroke-width="1" opacity="0.28" transform="rotate(19.9 240.5 242.1)"/><ellipse cx="247.3" cy="250.6" rx="172.8" ry="140.0" fill="none" stroke="#e9faf2" stroke-width="1" opacity="0.30" transform="rotate(27.7 247.3 250.6)"/><ellipse cx="262.6" cy="249.7" rx="178.9" ry="102.4" fill="none" stroke="#57bc80" stroke-width="1" opacity="0.33" transform="rotate(24.7 262.6 249.7)"/><ellipse cx="241.7" cy="253.3" rx="182.9" ry="111.1" fill="none" stroke="#438c60" stroke-width="1" opacity="0.23" transform="rotate(160.5 241.7 253.3)"/><ellipse cx="259.6" cy="251.5" rx="193.8" ry="138.2" fill="none" stroke="#e9faf2" stroke-width="1" opacity="0.34" transform="rotate(10.4 259.6 251.5)"/><ellipse cx="243.7" cy="236.7" rx="200.7" ry="152.8" fill="none" stroke="#57bc80" stroke-width="1" opacity="0.22" transform="rotate(141.8 243.7 236.7)"/>
    <rect x="46" y="46" width="408" height="408" fill="#e9faf2" filter="url(#grain-35)" opacity="0.15"/>
  </g>
  <rect x="46" y="46" width="408" height="408" fill="none" stroke="#203c30" stroke-width="2"/>
  <g transform="translate(392,392) scale(0.7600)"><rect x="8" y="8" width="84" height="84" rx="14" fill="#f5642b"/><path d="M 62.55 57.22 A 19 19 0 1 1 66.93 46.66 C 76 52 82 62 78 72 C 75.5 78 68 80 62 76" fill="none" stroke="#000d06" stroke-width="7" stroke-linecap="round" stroke-linejoin="round"/></g>
</svg>
