<svg xmlns="http://www.w3.org/2000/svg" viewBox="0 0 500 500" width="500" height="500" role="img" aria-label="OBRA #6 — Guilloché, Vermellón">
  <defs>
    <clipPath id="frame-clip-6"><rect x="46" y="46" width="408" height="408" rx="2"/></clipPath>
    
  </defs>
  <rect x="0" y="0" width="500" height="500" fill="#000d06"/>
  <rect x="28" y="28" width="444" height="444" rx="6" fill="#011c11"/>
  <g clip-path="url(#frame-clip-6)">
    <ellipse cx="239.4" cy="236.4" rx="27.2" ry="21.6" fill="none" stroke="#f5642b" stroke-width="1" opacity="0.21" transform="rotate(0.0 239.4 236.4)"/><ellipse cx="238.4" cy="239.3" rx="30.6" ry="17.4" fill="none" stroke="#c06240" stroke-width="1" opacity="0.20" transform="rotate(15.8 238.4 239.3)"/><ellipse cx="261.8" cy="260.5" rx="42.6" ry="35.4" fill="none" stroke="#e9faf2" stroke-width="1" opacity="0.19" transform="rotate(26.7 261.8 260.5)"/><ellipse cx="237.9" cy="261.3" rx="41.5" ry="31.6" fill="none" stroke="#f5642b" stroke-width="1" opacity="0.38" transform="rotate(49.7 237.9 261.3)"/><ellipse cx="259.3" cy="260.8" rx="50.5" ry="41.4" fill="none" stroke="#c06240" stroke-width="1" opacity="0.25" transform="rotate(5.1 259.3 260.8)"/><ellipse cx="250.1" cy="252.4" rx="48.1" ry="40.3" fill="none" stroke="#e9faf2" stroke-width="1" opacity="0.19" transform="rotate(108.6 250.1 252.4)"/><ellipse cx="248.8" cy="262.3" rx="53.4" ry="44.1" fill="none" stroke="#f5642b" stroke-width="1" opacity="0.39" transform="rotate(63.1 248.8 262.3)"/><ellipse cx="261.2" cy="240.7" rx="58.8" ry="35.5" fill="none" stroke="#c06240" stroke-width="1" opacity="0.30" transform="rotate(107.8 261.2 240.7)"/><ellipse cx="247.4" cy="262.7" rx="63.9" ry="52.4" fill="none" stroke="#e9faf2" stroke-width="1" opacity="0.20" transform="rotate(148.2 247.4 262.7)"/><ellipse cx="237.1" cy="245.6" rx="67.7" ry="42.9" fill="none" stroke="#f5642b" stroke-width="1" opacity="0.25" transform="rotate(0.6 237.1 245.6)"/><ellipse cx="244.1" cy="263.6" rx="69.8" ry="43.0" fill="none" stroke="#c06240" stroke-width="1" opacity="0.34" transform="rotate(60.1 244.1 263.6)"/><ellipse cx="251.3" cy="258.8" rx="77.2" ry="55.9" fill="none" stroke="#e9faf2" stroke-width="1" opacity="0.21" transform="rotate(93.8 251.3 258.8)"/><ellipse cx="249.1" cy="263.7" rx="81.2" ry="51.3" fill="none" stroke="#f5642b" stroke-width="1" opacity="0.34" transform="rotate(117.7 249.1 263.7)"/><ellipse cx="243.7" cy="244.7" rx="89.5" ry="68.7" fill="none" stroke="#c06240" stroke-width="1" opacity="0.34" transform="rotate(143.8 243.7 244.7)"/><ellipse cx="258.2" cy="245.2" rx="90.6" ry="50.2" fill="none" stroke="#e9faf2" stroke-width="1" opacity="0.27" transform="rotate(133.3 258.2 245.2)"/><ellipse cx="240.7" cy="260.3" rx="98.9" ry="78.7" fill="none" stroke="#f5642b" stroke-width="1" opacity="0.23" transform="rotate(134.0 240.7 260.3)"/><ellipse cx="254.0" cy="250.8" rx="103.5" ry="58.8" fill="none" stroke="#c06240" stroke-width="1" opacity="0.27" transform="rotate(121.1 254.0 250.8)"/><ellipse cx="255.3" cy="250.2" rx="107.8" ry="81.0" fill="none" stroke="#e9faf2" stroke-width="1" opacity="0.28" transform="rotate(74.4 255.3 250.2)"/><ellipse cx="255.8" cy="263.1" rx="108.9" ry="88.9" fill="none" stroke="#f5642b" stroke-width="1" opacity="0.35" transform="rotate(128.9 255.8 263.1)"/><ellipse cx="259.4" cy="258.9" rx="115.0" ry="86.8" fill="none" stroke="#c06240" stroke-width="1" opacity="0.26" transform="rotate(1.2 259.4 258.9)"/><ellipse cx="251.1" cy="240.0" rx="118.2" ry="88.1" fill="none" stroke="#e9faf2" stroke-width="1" opacity="0.37" transform="rotate(170.4 251.1 240.0)"/><ellipse cx="240.4" cy="249.0" rx="118.8" ry="65.9" fill="none" stroke="#f5642b" stroke-width="1" opacity="0.31" transform="rotate(6.2 240.4 249.0)"/><ellipse cx="258.5" cy="255.7" rx="126.2" ry="92.7" fill="none" stroke="#c06240" stroke-width="1" opacity="0.21" transform="rotate(87.9 258.5 255.7)"/><ellipse cx="253.8" cy="237.7" rx="133.3" ry="88.9" fill="none" stroke="#e9faf2" stroke-width="1" opacity="0.28" transform="rotate(179.8 253.8 237.7)"/><ellipse cx="255.8" cy="259.1" rx="136.8" ry="114.2" fill="none" stroke="#f5642b" stroke-width="1" opacity="0.29" transform="rotate(69.5 255.8 259.1)"/><ellipse cx="246.2" cy="256.3" rx="142.1" ry="83.6" fill="none" stroke="#c06240" stroke-width="1" opacity="0.32" transform="rotate(56.4 246.2 256.3)"/><ellipse cx="252.4" cy="236.5" rx="147.1" ry="92.0" fill="none" stroke="#e9faf2" stroke-width="1" opacity="0.24" transform="rotate(61.3 252.4 236.5)"/><ellipse cx="258.0" cy="260.4" rx="146.0" ry="110.5" fill="none" stroke="#f5642b" stroke-width="1" opacity="0.34" transform="rotate(19.5 258.0 260.4)"/><ellipse cx="240.6" cy="257.0" rx="149.1" ry="106.7" fill="none" stroke="#c06240" stroke-width="1" opacity="0.25" transform="rotate(38.1 240.6 257.0)"/><ellipse cx="237.2" cy="250.3" rx="156.3" ry="100.3" fill="none" stroke="#e9faf2" stroke-width="1" opacity="0.19" transform="rotate(143.6 237.2 250.3)"/><ellipse cx="238.6" cy="237.8" rx="159.7" ry="88.9" fill="none" stroke="#f5642b" stroke-width="1" opacity="0.19" transform="rotate(151.8 238.6 237.8)"/><ellipse cx="246.3" cy="247.8" rx="164.0" ry="91.5" fill="none" stroke="#c06240" stroke-width="1" opacity="0.27" transform="rotate(151.5 246.3 247.8)"/><ellipse cx="244.2" cy="247.9" rx="166.1" ry="118.4" fill="none" stroke="#e9faf2" stroke-width="1" opacity="0.34" transform="rotate(40.5 244.2 247.9)"/><ellipse cx="244.0" cy="244.8" rx="175.4" ry="134.1" fill="none" stroke="#f5642b" stroke-width="1" opacity="0.20" transform="rotate(121.4 244.0 244.8)"/><ellipse cx="250.6" cy="246.9" rx="176.9" ry="125.5" fill="none" stroke="#c06240" stroke-width="1" opacity="0.39" transform="rotate(127.6 250.6 246.9)"/><ellipse cx="249.6" cy="240.2" rx="181.9" ry="101.6" fill="none" stroke="#e9faf2" stroke-width="1" opacity="0.18" transform="rotate(107.4 249.6 240.2)"/><ellipse cx="251.3" cy="254.5" rx="188.9" ry="112.5" fill="none" stroke="#f5642b" stroke-width="1" opacity="0.35" transform="rotate(4.2 251.3 254.5)"/><ellipse cx="254.8" cy="238.5" rx="194.0" ry="139.9" fill="none" stroke="#c06240" stroke-width="1" opacity="0.25" transform="rotate(0.1 254.8 238.5)"/><ellipse cx="246.6" cy="244.9" rx="191.9" ry="160.7" fill="none" stroke="#e9faf2" stroke-width="1" opacity="0.39" transform="rotate(42.0 246.6 244.9)"/><ellipse cx="261.1" cy="262.5" rx="198.4" ry="112.7" fill="none" stroke="#f5642b" stroke-width="1" opacity="0.29" transform="rotate(92.7 261.1 262.5)"/>
    
  </g>
  <rect x="46" y="46" width="408" height="408" fill="none" stroke="#203c30" stroke-width="2"/>
  <g transform="translate(392,392) scale(0.7600)"><rect x="8" y="8" width="84" height="84" rx="14" fill="#f5642b"/><path d="M 62.55 57.22 A 19 19 0 1 1 66.93 46.66 C 76 52 82 62 78 72 C 75.5 78 68 80 62 76" fill="none" stroke="#000d06" stroke-width="7" stroke-linecap="round" stroke-linejoin="round"/></g>
</svg>
