<svg xmlns="http://www.w3.org/2000/svg" viewBox="0 0 500 500" width="500" height="500" role="img" aria-label="OBRA #77 — Orbital, Dorada">
  <defs>
    <clipPath id="frame-clip-77"><rect x="46" y="46" width="408" height="408" rx="2"/></clipPath>
    <pattern id="hatch-77" width="6" height="6" patternTransform="rotate(45)" patternUnits="userSpaceOnUse"><line x1="0" y1="0" x2="0" y2="6" stroke="#e9faf2" stroke-width="0.6"/></pattern>
  </defs>
  <rect x="0" y="0" width="500" height="500" fill="#000d06"/>
  <rect x="28" y="28" width="444" height="444" rx="6" fill="#011c11"/>
  <g clip-path="url(#frame-clip-77)">
    <circle cx="123.9" cy="156.9" r="99.0" fill="#ddb049" opacity="0.97"/><circle cx="200.9" cy="305.9" r="38.7" fill="#9e7a23" opacity="0.86"/><circle cx="81.8" cy="99.2" r="71.6" fill="none" stroke="#e9faf2" stroke-width="5.2" opacity="0.70"/><circle cx="250" cy="250" r="3" fill="#e9faf2" opacity="0.5"/>
    <rect x="46" y="46" width="408" height="408" fill="url(#hatch-77)" opacity="0.22"/>
  </g>
  <rect x="46" y="46" width="408" height="408" fill="none" stroke="#203c30" stroke-width="2"/>
  <g transform="translate(392,392) scale(0.7600)"><rect x="8" y="8" width="84" height="84" rx="14" fill="#f5642b"/><path d="M 62.55 57.22 A 19 19 0 1 1 66.93 46.66 C 76 52 82 62 78 72 C 75.5 78 68 80 62 76" fill="none" stroke="#000d06" stroke-width="7" stroke-linecap="round" stroke-linejoin="round"/></g>
</svg>
