<svg xmlns="http://www.w3.org/2000/svg" viewBox="0 0 500 500" width="500" height="500" role="img" aria-label="OBRA #9 — Trazo, Vermellón">
  <defs>
    <clipPath id="frame-clip-9"><rect x="46" y="46" width="408" height="408" rx="2"/></clipPath>
    <pattern id="hatch-9" width="6" height="6" patternTransform="rotate(45)" patternUnits="userSpaceOnUse"><line x1="0" y1="0" x2="0" y2="6" stroke="#e9faf2" stroke-width="0.6"/></pattern>
  </defs>
  <rect x="0" y="0" width="500" height="500" fill="#000d06"/>
  <rect x="28" y="28" width="444" height="444" rx="6" fill="#011c11"/>
  <g clip-path="url(#frame-clip-9)">
    <path d="M 165.5 170.4 C 285.9 145.0, 364.6 129.4, 399.2 166.1 C 519.3 145.4, 555.2 160.1, 454.0 192.8 C 504.2 208.6, 575.6 188.8, 454.0 163.3" fill="none" stroke="#f5642b" stroke-width="4.8" stroke-linecap="round" opacity="0.73"/><path d="M 94.3 268.4 C 138.8 266.6, 217.3 222.6, 243.9 171.6 C 265.0 96.4, 334.7 29.6, 372.8 46.0 C 458.9 99.5, 521.2 25.9, 454.0 46.0" fill="none" stroke="#c06240" stroke-width="4.0" stroke-linecap="round" opacity="0.93"/><path d="M 49.5 320.3 C 122.6 242.6, 216.3 192.3, 249.5 198.8 C 359.3 227.3, 449.9 287.4, 454.0 300.0 C 508.8 319.8, 607.6 388.1, 454.0 342.7 C 479.5 371.1, 596.9 403.6, 454.0 417.9" fill="none" stroke="#e9faf2" stroke-width="2.7" stroke-linecap="round" opacity="0.73"/><path d="M 160.8 80.7 C 262.4 53.8, 318.9 47.9, 335.5 46.0 C 430.6 -33.4, 456.4 -88.2, 454.0 46.0" fill="none" stroke="#f5642b" stroke-width="2.4" stroke-linecap="round" opacity="0.94"/><path d="M 47.1 260.6 C 101.7 333.4, 152.6 344.4, 177.9 314.6 C 267.9 237.4, 344.3 182.4, 374.0 178.0 C 496.3 100.6, 543.5 114.3, 454.0 67.6 C 501.1 106.3, 619.3 160.1, 454.0 168.7" fill="none" stroke="#c06240" stroke-width="4.0" stroke-linecap="round" opacity="0.69"/><path d="M 91.7 420.0 C 178.2 485.2, 273.5 538.3, 304.4 454.0 C 406.2 415.1, 476.5 354.2, 454.0 338.2 C 538.1 373.9, 567.7 328.8, 454.0 321.1" fill="none" stroke="#e9faf2" stroke-width="4.8" stroke-linecap="round" opacity="0.65"/>
    <rect x="46" y="46" width="408" height="408" fill="url(#hatch-9)" opacity="0.22"/>
  </g>
  <rect x="46" y="46" width="408" height="408" fill="none" stroke="#203c30" stroke-width="2"/>
  <g transform="translate(392,392) scale(0.7600)"><rect x="8" y="8" width="84" height="84" rx="14" fill="#f5642b"/><path d="M 62.55 57.22 A 19 19 0 1 1 66.93 46.66 C 76 52 82 62 78 72 C 75.5 78 68 80 62 76" fill="none" stroke="#000d06" stroke-width="7" stroke-linecap="round" stroke-linejoin="round"/></g>
</svg>
